<svg class="animated" id="freepik_stories-by-my-car"
    xmlns="http://www.w3.org/2000/svg" viewBox="0 0 750 500" version="1.1"
    xmlns:xlink="http://www.w3.org/1999/xlink"
    xmlns:svgjs="http://svgjs.com/svgjs">
    <style>svg#freepik_stories-by-my-car:not(.animated) .animable {opacity: 0;}svg#freepik_stories-by-my-car.animated #freepik--background-complete--inject-83 {animation: 1.5s Infinite  linear wind;animation-delay: 0s;}svg#freepik_stories-by-my-car.animated #freepik--Plant--inject-83 {animation: 1.5s Infinite  linear wind;animation-delay: 0s;}svg#freepik_stories-by-my-car.animated #freepik--speech-bubble--inject-83 {animation: 1.5s Infinite  linear floating;animation-delay: 0s;}            @keyframes wind {                0% {                    transform: rotate( 0deg );                }                25% {                    transform: rotate( 1deg );                }                75% {                    transform: rotate( -1deg );                }            }                    @keyframes floating {                0% {                    opacity: 1;                    transform: translateY(0px);                }                50% {                    transform: translateY(-10px);                }                100% {                    opacity: 1;                    transform: translateY(0px);                }            }        </style>
    <g id="freepik--background-complete--inject-83" class="animable animator-active" style="transform-origin: 378.375px 262.43px;">
        <polygon points="634.24 79.06 591.97 164.33 604.59 164.81 568.77 232.56 587.58 232.56 558.24 292.76 722.28 292.76 686.16 232.56 703.47 231.81 668.85 164.09 681.64 163.34 634.24 79.06" style="fill: rgb(245, 245, 245); transform-origin: 640.26px 185.91px;" id="elcck8zlwdl2k" class="animable"></polygon>
        <path d="M641.39,178c.24,0-.1,51.49-.75,115s-1.69,122.14-1.7,121.9c-.07-13.58.17-58.39.83-121.9S641.14,178,641.39,178Z" style="fill: rgb(224, 224, 224); transform-origin: 640.198px 296.45px;" id="elqo8zii1lr9" class="animable"></path>
        <path d="M661.49,199.89c.19.15-4,5.94-9.41,12.93S642.16,225.35,642,225.2s4-5.93,9.41-12.92S661.3,199.74,661.49,199.89Z" style="fill: rgb(224, 224, 224); transform-origin: 651.746px 212.545px;" id="eluatnxp7t0yb" class="animable"></path>
        <path d="M641,223.39c-.15.19-4.32-2.8-9.3-6.69s-8.91-7.19-8.77-7.39,4.32,2.81,9.31,6.7S641.14,223.2,641,223.39Z" style="fill: rgb(224, 224, 224); transform-origin: 631.965px 216.35px;" id="elyy97jj801hs" class="animable"></path>
        <path d="M639.86,265.22a20.11,20.11,0,0,1-3.11-2.43c-1.86-1.57-4.42-3.73-7.29-6.08s-5.52-4.41-7.43-5.91a19.9,19.9,0,0,1-3-2.56,16.13,16.13,0,0,1,3.37,2.06c2,1.38,4.72,3.38,7.61,5.73s5.4,4.61,7.16,6.3A16,16,0,0,1,639.86,265.22Z" style="fill: rgb(224, 224, 224); transform-origin: 629.445px 256.73px;" id="elinletmmox9n" class="animable"></path>
        <path d="M661.52,239.36c.18.16-4.43,6.22-10.32,13.54s-10.81,13.13-11,13,4.43-6.21,10.32-13.53S661.33,239.21,661.52,239.36Z" style="fill: rgb(224, 224, 224); transform-origin: 650.86px 252.63px;" id="elqoet7mmg6e" class="animable"></path>
        <polygon points="154.11 79.06 115.6 156.75 127.1 157.18 94.47 218.92 111.6 218.92 84.87 273.76 234.32 273.76 201.41 218.92 217.18 218.23 185.65 156.53 197.3 155.84 154.11 79.06" style="fill: rgb(245, 245, 245); transform-origin: 159.595px 176.41px;" id="elb2wszrlsffd" class="animable"></polygon>
        <path d="M160.62,169.18c.22,0-.08,46.9-.67,104.75s-1.26,123.44-1.48,123.43.08-65.57.68-123.44S160.4,169.18,160.62,169.18Z" style="fill: rgb(224, 224, 224); transform-origin: 159.545px 283.27px;" id="elxmmcmcuigd" class="animable"></path>
        <path d="M178.94,189.15c.17.13-3.67,5.41-8.58,11.77s-9,11.43-9.2,11.29,3.66-5.4,8.57-11.77S178.76,189,178.94,189.15Z" style="fill: rgb(224, 224, 224); transform-origin: 170.049px 200.68px;" id="el158f06tvzkq" class="animable"></path>
        <path d="M160.26,210.56c-.14.17-3.93-2.56-8.47-6.1s-8.12-6.55-8-6.73,3.93,2.56,8.48,6.1S160.39,210.39,160.26,210.56Z" style="fill: rgb(224, 224, 224); transform-origin: 152.025px 204.145px;" id="elna759qof41g" class="animable"></path>
        <path d="M159.24,248.67a17.34,17.34,0,0,1-2.84-2.22c-1.69-1.42-4-3.4-6.65-5.53s-5-4-6.76-5.39a17.88,17.88,0,0,1-2.74-2.33,14.55,14.55,0,0,1,3.08,1.87c1.83,1.26,4.3,3.09,6.93,5.23s4.91,4.19,6.52,5.73A15.2,15.2,0,0,1,159.24,248.67Z" style="fill: rgb(224, 224, 224); transform-origin: 149.745px 240.935px;" id="el2xtzue2xthn" class="animable"></path>
        <path d="M179,225.11c.17.14-4,5.66-9.39,12.33s-9.85,12-10,11.83,4-5.65,9.39-12.33S178.79,225,179,225.11Z" style="fill: rgb(224, 224, 224); transform-origin: 169.306px 237.191px;" id="el1znwwiildec" class="animable"></path>
        <polygon points="87.8 183.01 58.14 242.85 67 243.19 41.86 290.73 55.06 290.73 34.47 332.98 142.97 332.98 124.24 290.73 136.38 290.2 112.09 242.68 121.07 242.15 87.8 183.01" style="fill: rgb(235, 235, 235); transform-origin: 88.72px 257.995px;" id="elz0xewulmo5" class="animable"></polygon>
        <path d="M92.82,252.42c.17,0-.07,36.13-.52,80.68s-1,80.69-1.14,80.69.06-36.12.52-80.69S92.65,252.42,92.82,252.42Z" style="fill: rgb(224, 224, 224); transform-origin: 91.9954px 333.105px;" id="eld0kmgkr50qn" class="animable"></path>
        <path d="M106.93,267.81a105.54,105.54,0,0,1-6.61,9.06,103.81,103.81,0,0,1-7.09,8.7c-.13-.11,2.82-4.17,6.6-9.07S106.79,267.7,106.93,267.81Z" style="fill: rgb(224, 224, 224); transform-origin: 100.078px 276.689px;" id="el73i6zxmdyck" class="animable"></path>
        <path d="M92.54,284.3c-.11.13-3-2-6.53-4.7a54.16,54.16,0,0,1-6.15-5.18c.11-.14,3,2,6.53,4.69S92.64,284.16,92.54,284.3Z" style="fill: rgb(224, 224, 224); transform-origin: 86.2013px 279.36px;" id="ele5hkqoyh7o5" class="animable"></path>
        <path d="M91.75,313.65a13.76,13.76,0,0,1-2.18-1.71c-1.31-1.1-3.11-2.62-5.12-4.26s-3.87-3.1-5.21-4.15a13.62,13.62,0,0,1-2.11-1.8,11.49,11.49,0,0,1,2.37,1.45c1.41,1,3.31,2.37,5.34,4s3.78,3.23,5,4.42A11.23,11.23,0,0,1,91.75,313.65Z" style="fill: rgb(224, 224, 224); transform-origin: 84.44px 307.69px;" id="elqjhknaw11yr" class="animable"></path>
        <path d="M106.94,295.5c.14.11-3.1,4.36-7.23,9.5s-7.59,9.22-7.72,9.11a119.36,119.36,0,0,1,7.24-9.49C103.36,299.48,106.81,295.4,106.94,295.5Z" style="fill: rgb(224, 224, 224); transform-origin: 99.4672px 304.805px;" id="el374ng5zip8f" class="animable"></path>
        <path d="M602.69,415.12c-39.08,29.28-91.52,33.44-140.17,29.35s-97-15.3-145.76-12.4c-27.61,1.64-54.86,7.79-82.51,8.28s-57-5.59-77-24.69Z" style="fill: rgb(245, 245, 245); transform-origin: 379.97px 430.46px;" id="el1fj61uuiez7" class="animable"></path>
        <path d="M234.85,135h132s-11.68-21.25-45.67-18.16c-32.46,3-34.11-10.45-50.61-12.1S240.36,115.74,234.85,135Z" style="fill: rgb(235, 235, 235); transform-origin: 300.85px 119.798px;" id="el5m81eyvap9x" class="animable"></path>
        <path d="M352.44,171.34h72s-6.37-11.58-24.9-9.9c-17.7,1.61-18.6-5.7-27.6-6.6S355.44,160.84,352.44,171.34Z" style="fill: rgb(245, 245, 245); transform-origin: 388.44px 163.051px;" id="elv2cl9d6tsy" class="animable"></path>
        <path d="M427.38,103.93h72S493,92.34,474.48,94c-17.7,1.61-18.6-5.7-27.6-6.6S430.38,93.43,427.38,103.93Z" style="fill: rgb(250, 250, 250); transform-origin: 463.38px 95.6258px;" id="elj5nekk6dw4" class="animable"></path>
    </g>
    <g id="freepik--Floor--inject-83" class="animable" style="transform-origin: 374.905px 414.51px;">
        <path d="M717.43,414.51c0,.15-153.37.26-342.51.26s-342.54-.11-342.54-.26,153.33-.26,342.54-.26S717.43,414.37,717.43,414.51Z" style="fill: rgb(38, 50, 56); transform-origin: 374.905px 414.51px;" id="elezonx6k6qbe" class="animable"></path>
    </g>
    <g id="freepik--Car--inject-83" class="animable" style="transform-origin: 374.894px 319.405px;">
        <path d="M672.84,315.92h0A28.78,28.78,0,0,1,674,353.76,41.49,41.49,0,0,1,659.2,365l-49.14,22.14-34.71,5.37-454.26-2.88-28.47-5.57a28.92,28.92,0,0,1-23.36-28.79l.29-19.78a7,7,0,0,1,5-6.59l2-.62s1.68-19.39,13.38-23.78c42.64-18.37,70.86-24.27,142.23-27.25l60.27-36s24.33-15.55,47-17.59,74-2.06,97.51-.71c27.61,1.59,62.64,14.15,82.18,23.84,15.3,7.59,52.13,26.34,52.13,26.34l20.83,3.49c3.14.15,60.67,3.66,67.28,4.67a13.23,13.23,0,0,1,10.47,9c1.65,5.46,3,25.51,3,25.51" style="fill: rgb(76, 135, 255); transform-origin: 374.894px 307.264px;" id="el759lm7g3bi3" class="animable"></path>
        <path d="M497,247.81c-9.82-4.91-36.16-11.68-50.89-14.44s-44.67-3.14-56.63-2.84-45.2.88-62.72,5.85c-9,2.56-23.49,10.06-32,16.34-3,2.18-15.84,12.27-18.71,14.56l-22.3,20.82,274-8.65s1.58-9.55-3.35-15.05S497,247.81,497,247.81Z" style="fill: rgb(38, 50, 56); transform-origin: 390.871px 259.272px;" id="el07lqdujudyq3" class="animable"></path>
        <path d="M90.53,327.11l-13.86-.2c.54-3.74,2.37-13.68,8.3-19.25l18.35.27a4.31,4.31,0,0,1,3.61,6.57l-3.34,5.43A15.08,15.08,0,0,1,90.53,327.11Z" style="fill: rgb(250, 250, 250); transform-origin: 92.1202px 317.386px;" id="elih9ul4qemo" class="animable"></path>
        <path d="M92.21,326.27c1.44-6.1,3.26-14.12,8.41-18.38l2.7,0a4.31,4.31,0,0,1,3.61,6.57l-3.34,5.43A15,15,0,0,1,92,327Z" style="fill: rgb(224, 224, 224); transform-origin: 99.7852px 317.445px;" id="elnc8j1159er" class="animable"></path>
        <g id="el6pg1xofeebi">
            <g style="opacity: 0.7; transform-origin: 173.97px 352.952px;" class="animable">
                <path d="M226.7,390.47a68.14,68.14,0,0,0,.94-21.68c-3.58-30.77-23.73-52.91-54.17-53.35-26.49-.38-48.37,16.17-52.84,46.82a78.83,78.83,0,0,0,.92,27.5Z" id="elo5gn56z39z" class="animable" style="transform-origin: 173.97px 352.952px;"></path>
            </g>
        </g>
        <g id="elqhg84ohsxl">
            <g style="opacity: 0.7; transform-origin: 555.004px 355.118px;" class="animable">
                <path d="M610,387.27c0-1.13-.13-2.29-.15-3.49-.54-38.83-26.59-65.73-57.57-66.18a51.4,51.4,0,0,0-52.08,50.6c-.13,8.64-.54,16.77.48,23.94l74.61.5Z" id="elhli1aflyskj" class="animable" style="transform-origin: 555.004px 355.118px;"></path>
            </g>
        </g>
        <path d="M506.84,368.29a44.73,44.73,0,1,0,45.37-44.08A44.73,44.73,0,0,0,506.84,368.29Z" style="fill: rgb(38, 50, 56); transform-origin: 551.565px 368.935px;" id="elbj6izwt3ojm" class="animable"></path>
        <path d="M506.84,368.18v.11a44.73,44.73,0,1,0,89.46,1.29s0-.07,0-.11Z" style="fill: rgb(38, 50, 56); transform-origin: 551.568px 390.925px;" id="elgkwslc0v7tl" class="animable"></path>
        <path d="M520.16,368.49a31.41,31.41,0,1,0,31.86-31A31.41,31.41,0,0,0,520.16,368.49Z" style="fill: rgb(250, 250, 250); transform-origin: 551.567px 368.897px;" id="el12nr4vgo9i9r" class="animable"></path>
        <path d="M552,337.53a31.42,31.42,0,0,0-31.86,31l62.81.9A31.41,31.41,0,0,0,552,337.53Z" style="fill: rgb(224, 224, 224); transform-origin: 551.547px 353.478px;" id="elzctofi7whcb" class="animable"></path>
        <path d="M532.44,368.66a19.13,19.13,0,1,0,19.4-18.85A19.13,19.13,0,0,0,532.44,368.66Z" style="fill: rgb(38, 50, 56); transform-origin: 551.568px 368.938px;" id="elm1j57bh7dwo" class="animable"></path>
        <g id="elmr1ed7sucqs">
            <circle cx="174.37" cy="370.09" r="44.74" style="fill: rgb(38, 50, 56); transform-origin: 174.37px 370.09px; transform: rotate(-2.57deg);" class="animable"></circle>
        </g>
        <path d="M129.65,369.33s0,.08,0,.12a44.73,44.73,0,0,0,89.46,1.29v-.12Z" style="fill: rgb(38, 50, 56); transform-origin: 174.378px 392.08px;" id="el6rl79ronq6e" class="animable"></path>
        <path d="M143,369.64a31.41,31.41,0,1,0,31.85-30.95A31.41,31.41,0,0,0,143,369.64Z" style="fill: rgb(250, 250, 250); transform-origin: 174.407px 370.097px;" id="ell953muoci9" class="animable"></path>
        <path d="M174.82,338.69A31.41,31.41,0,0,0,143,369.64l62.81.91A31.41,31.41,0,0,0,174.82,338.69Z" style="fill: rgb(224, 224, 224); transform-origin: 174.407px 354.619px;" id="elbpwg3gi45rg" class="animable"></path>
        <path d="M155.24,369.82A19.13,19.13,0,1,0,174.65,351,19.13,19.13,0,0,0,155.24,369.82Z" style="fill: rgb(38, 50, 56); transform-origin: 174.368px 370.128px;" id="elal4rmgoyus6" class="animable"></path>
        <g id="el90icew2jsl7">
            <g style="opacity: 0.4; transform-origin: 82.295px 359.76px;" class="animable">
                <path d="M87.83,359.84c-.07,5-2.61,9-5.66,9s-5.48-4.15-5.41-9.16,2.61-9,5.67-9S87.9,354.83,87.83,359.84Z" id="elt5mp0zxyvrh" class="animable" style="transform-origin: 82.295px 359.76px;"></path>
            </g>
        </g>
        <path d="M672.84,315.92a4.19,4.19,0,0,1-.86.07l-2.48.09c-2.15.05-5.26.12-9.09.28s-8.41.36-13.47.77a114.6,114.6,0,0,0-16.29,2.4,41.43,41.43,0,0,0-8,2.77,33.68,33.68,0,0,0-6.59,4.33c-4,3.11-7,6.56-9.77,9.27a40.46,40.46,0,0,1-7,5.83,18.4,18.4,0,0,1-2.19,1.18,3.85,3.85,0,0,1-.8.33c0-.06,1.07-.54,2.85-1.72a43.21,43.21,0,0,0,6.83-5.94c2.69-2.73,5.69-6.24,9.72-9.41a33.49,33.49,0,0,1,6.69-4.43,41.08,41.08,0,0,1,8.13-2.83,111,111,0,0,1,16.4-2.37c5.08-.37,9.66-.56,13.5-.64s7-.09,9.11-.07l2.48,0A4.87,4.87,0,0,1,672.84,315.92Z" style="fill: rgb(38, 50, 56); transform-origin: 634.57px 329.531px;" id="el7vx45ng6wcn" class="animable"></path>
        <g id="eltgharimagdq">
            <g style="opacity: 0.5; transform-origin: 552.116px 349.578px;" class="animable">
                <path d="M608.6,388.07a6.22,6.22,0,0,1,.54-.35,16.83,16.83,0,0,0,1.51-1.12,15.31,15.31,0,0,0,4.13-5.82,23.6,23.6,0,0,0,1.45-11.21,78.59,78.59,0,0,0-3-14.85,77.72,77.72,0,0,0-7.2-16.85,64.45,64.45,0,0,0-13.31-16.21,54.87,54.87,0,0,0-20.11-11.3,62.81,62.81,0,0,0-24.71-2.11,84.07,84.07,0,0,0-24.11,6.27,52.3,52.3,0,0,0-30,30.85,87.47,87.47,0,0,0-4.66,17.74c-.44,2.78-.77,5.44-1,8a50.37,50.37,0,0,0-.3,7.13c.14,4.44,1.59,8.24,3.86,10.41a10,10,0,0,0,6.31,3.12,10.7,10.7,0,0,0,2.5-.23l-.62.18a7.87,7.87,0,0,1-1.89.18,10.09,10.09,0,0,1-6.47-3.07c-2.35-2.2-3.88-6.08-4-10.57a50.75,50.75,0,0,1,.25-7.19c.21-2.53.53-5.2.95-8a87.26,87.26,0,0,1,4.62-17.86,64.39,64.39,0,0,1,4.44-9.29,51.78,51.78,0,0,1,6.52-8.77A55.81,55.81,0,0,1,523.58,314a84,84,0,0,1,24.29-6.33,63,63,0,0,1,25,2.14,55.31,55.31,0,0,1,20.32,11.46,64.78,64.78,0,0,1,13.38,16.38,80.93,80.93,0,0,1,10.06,31.94A23.82,23.82,0,0,1,615,380.87a15.21,15.21,0,0,1-4.28,5.83A9.8,9.8,0,0,1,608.6,388.07Z" style="fill: rgb(255, 255, 255); transform-origin: 552.116px 349.578px;" id="el44tebiv8dal" class="animable"></path>
            </g>
        </g>
        <path d="M121.57,362.25a19.27,19.27,0,0,1-1.45-1.71,32.79,32.79,0,0,0-4.34-4.22,42.37,42.37,0,0,0-18-8.23,82.74,82.74,0,0,0-20-1.28c-2.57.09-4.65.22-6.09.29a14.09,14.09,0,0,1-2.24.06,2.15,2.15,0,0,1,.57-.11l1.65-.2c1.43-.15,3.51-.34,6.09-.49a77.17,77.17,0,0,1,20.12,1.1A41.1,41.1,0,0,1,116.07,356a28.32,28.32,0,0,1,4.24,4.42,15,15,0,0,1,1,1.36A2.56,2.56,0,0,1,121.57,362.25Z" style="fill: rgb(38, 50, 56); transform-origin: 95.51px 354.193px;" id="elbl7krsrdqeu" class="animable"></path>
        <path d="M121.29,329c0,.18-10.68.17-23.85,0s-23.84-.49-23.84-.67,10.68-.16,23.85,0S121.3,328.77,121.29,329Z" style="fill: rgb(38, 50, 56); transform-origin: 97.445px 328.667px;" id="el4ee06n1zig3" class="animable"></path>
        <g id="elf997w0inylr">
            <g style="opacity: 0.5; transform-origin: 175.274px 343.618px;" class="animable">
                <path d="M242.34,385.85a5.53,5.53,0,0,1,0-.61c0-.43,0-1,0-1.79s0-1.77-.12-2.92-.14-2.48-.29-4a102.15,102.15,0,0,0-5.43-24.7,107.6,107.6,0,0,0-7.11-16A84.51,84.51,0,0,0,218,319.4a49,49,0,0,0-17.9-12.66A63.42,63.42,0,0,0,176.94,302a74.61,74.61,0,0,0-12,.86,76.29,76.29,0,0,0-11.35,2.85,69.81,69.81,0,0,0-10.35,4.53l-1.22.65-1.18.71L138.49,313l-2.21,1.53-1.1.76-1,.83a62.8,62.8,0,0,0-13.68,14.52,69.15,69.15,0,0,0-7.92,15.53,72.36,72.36,0,0,0-3.47,14c-.23,2.11-.49,4.07-.53,5.89s-.09,3.48-.08,5,.16,2.82.21,4,.21,2.12.31,2.9.16,1.35.22,1.78,0,.61,0,.61,0-.2-.12-.6-.16-1-.28-1.77-.3-1.75-.37-2.9-.28-2.48-.27-4-.1-3.18,0-5,.27-3.81.49-5.93a70.69,70.69,0,0,1,3.4-14.08,69.09,69.09,0,0,1,7.9-15.68,63.41,63.41,0,0,1,13.76-14.69l1.05-.83,1.11-.77,2.23-1.56,2.35-1.43,1.18-.72,1.23-.65a68.93,68.93,0,0,1,10.43-4.59,76.56,76.56,0,0,1,11.46-2.89,74.84,74.84,0,0,1,12.13-.87,63.81,63.81,0,0,1,23.36,4.82A49.72,49.72,0,0,1,218.41,319a85.45,85.45,0,0,1,11.37,16.64,105.92,105.92,0,0,1,7.06,16.07,100,100,0,0,1,5.26,24.83A75.09,75.09,0,0,1,242.34,385.85Z" style="fill: rgb(255, 255, 255); transform-origin: 175.274px 343.618px;" id="elf0ubzgsltn7" class="animable"></path>
            </g>
        </g>
        <path d="M592.13,277.21a2.88,2.88,0,0,1,0,.65c-.06.5-.14,1.11-.24,1.86-.22,1.61-.55,3.94-.76,6.83a37.51,37.51,0,0,0,.46,10.11,21.29,21.29,0,0,0,5.63,10.79,30.16,30.16,0,0,0,10.28,6.75A54.24,54.24,0,0,0,617.2,317c2.85.57,5.18.92,6.78,1.18l1.85.31a3,3,0,0,1,.64.15,2,2,0,0,1-.66,0l-1.86-.19c-1.62-.19-4-.47-6.83-1a51.26,51.26,0,0,1-9.89-2.73,30.13,30.13,0,0,1-10.53-6.85A21.72,21.72,0,0,1,591,296.77a37,37,0,0,1-.34-10.25c.28-2.91.68-5.24,1-6.84.15-.8.28-1.42.37-1.84A2.42,2.42,0,0,1,592.13,277.21Z" style="fill: rgb(38, 50, 56); transform-origin: 608.461px 297.939px;" id="el6vbir9dwx8h" class="animable"></path>
        <path d="M364.86,301.69a1.84,1.84,0,0,1,.55-.05,8,8,0,0,1,1.59.08,3.07,3.07,0,0,1,2.17,1.32,3.32,3.32,0,0,1,.26,3.34,5,5,0,0,1-3.23,2.51,14.35,14.35,0,0,1-4.65.23l-10.52-.6a8.38,8.38,0,0,1-2.82-.53,3.51,3.51,0,0,1-2-2,3.06,3.06,0,0,1,.53-2.73,4.31,4.31,0,0,1,2.12-1.55,14.71,14.71,0,0,1,4.65-.47c1.44,0,2.79,0,4,.1l5.79.25a14.48,14.48,0,0,1,2.13.11,1.74,1.74,0,0,1-.55.07c-.36,0-.89.05-1.58.06-1.37,0-3.35,0-5.8,0-1.22,0-2.56,0-4,0a14.46,14.46,0,0,0-4.45.5,3.64,3.64,0,0,0-1.82,1.34,2.43,2.43,0,0,0-.43,2.18,2.89,2.89,0,0,0,1.68,1.64,7.81,7.81,0,0,0,2.61.47l10.51.65a14.43,14.43,0,0,0,4.49-.15,4.56,4.56,0,0,0,3-2.2,2.94,2.94,0,0,0-.16-2.94A2.85,2.85,0,0,0,367,302C365.63,301.72,364.85,301.76,364.86,301.69Z" style="fill: rgb(38, 50, 56); transform-origin: 357.927px 305.213px;" id="el54vzk06mscd" class="animable"></path>
        <path d="M506.33,300.52a1.84,1.84,0,0,1,.55,0,8,8,0,0,1,1.59.08,3.1,3.1,0,0,1,2.17,1.32,3.32,3.32,0,0,1,.26,3.34,5,5,0,0,1-3.23,2.51A14.35,14.35,0,0,1,503,308l-10.52-.6a8.62,8.62,0,0,1-2.82-.52,3.51,3.51,0,0,1-2-2,3,3,0,0,1,.52-2.73,4.37,4.37,0,0,1,2.12-1.55,15,15,0,0,1,4.65-.47c1.44,0,2.79.05,4,.1l5.8.25a19.13,19.13,0,0,1,2.12.11,1.74,1.74,0,0,1-.55.07c-.36,0-.89.05-1.58.07-1.37,0-3.35,0-5.8,0-1.22,0-2.56,0-4,0a14.46,14.46,0,0,0-4.45.5,3.6,3.6,0,0,0-1.82,1.35,2.41,2.41,0,0,0-.43,2.17,2.89,2.89,0,0,0,1.68,1.64,8.07,8.07,0,0,0,2.61.48l10.51.64a14.13,14.13,0,0,0,4.49-.15,4.58,4.58,0,0,0,3-2.19,3,3,0,0,0-.16-2.95,2.84,2.84,0,0,0-1.92-1.27C507.1,300.55,506.32,300.59,506.33,300.52Z" style="fill: rgb(38, 50, 56); transform-origin: 499.382px 304.1px;" id="el35n4ps7l5ej" class="animable"></path>
        <path d="M527.65,279.45s0,.19-.14.56-.25.94-.45,1.67l-1.79,6.46c-1.59,5.67-3.91,14-6.87,24.5v.06l-.06,0a55,55,0,0,0-13.76,9.18,57.43,57.43,0,0,0-6.41,6.82,67.35,67.35,0,0,0-5.6,8.31,82.05,82.05,0,0,0-8,20.34,98.08,98.08,0,0,0-3.1,23.92v.24h-.23l-100.32,0-129.4-.05h-.19l0-.18C248,354.8,246,333,244.73,317.75c-.62-7.6-1-13.54-1.32-17.58-.13-2-.23-3.56-.3-4.61S243,294,243,294s.06.53.14,1.57.21,2.59.36,4.6c.33,4,.82,10,1.44,17.57,1.31,15.19,3.42,37,6.71,63.54l-.2-.18,129.4,0,100.32,0-.23.24a98.73,98.73,0,0,1,3.14-24,82.69,82.69,0,0,1,8.12-20.43,67,67,0,0,1,5.65-8.35,58,58,0,0,1,6.46-6.84,55.33,55.33,0,0,1,13.87-9.18l-.08.09,7-24.46c.81-2.81,1.43-5,1.86-6.45.21-.72.37-1.27.49-1.65S527.65,279.45,527.65,279.45Z" style="fill: rgb(38, 50, 56); transform-origin: 385.325px 330.48px;" id="el8fiq2k1aqt3" class="animable"></path>
        <path d="M383.44,284.52a1.17,1.17,0,0,1,0,.25c0,.19-.05.43-.08.73-.08.68-.2,1.62-.35,2.8s-.35,2.71-.53,4.44-.43,3.7-.61,5.89-.41,4.57-.56,7.14-.3,5.33-.44,8.22c-.19,5.79-.24,12.17,0,18.85s.72,13.05,1.31,18.81c.32,2.88.61,5.62,1,8.17s.7,4.93,1.05,7.1.71,4.11,1,5.83.58,3.19.83,4.39.4,2.1.53,2.77l.13.73a.77.77,0,0,1,0,.25.75.75,0,0,1-.08-.24q-.08-.28-.18-.72c-.15-.67-.36-1.59-.63-2.75s-.6-2.66-.92-4.38-.74-3.65-1.08-5.82-.77-4.54-1.11-7.1-.7-5.29-1-8.18c-.61-5.77-1.11-12.14-1.35-18.84s-.14-13.08.07-18.89c.15-2.9.27-5.65.49-8.23s.4-5,.63-7.15.47-4.15.68-5.88.43-3.22.62-4.43.34-2.12.45-2.79l.13-.73A.81.81,0,0,1,383.44,284.52Z" style="fill: rgb(38, 50, 56); transform-origin: 383.48px 332.705px;" id="elo57duhaeozm" class="animable"></path>
        <path d="M244.21,281.67c-3.2,2.4-8,3-11.9,2.19s-7-2.62-9-6.09l8.8-.39Z" style="fill: rgb(38, 50, 56); transform-origin: 233.76px 280.79px;" id="elwg6i977znda" class="animable"></path>
        <path d="M232.09,277.38s8.88,5.41,11.46,4.67,44-33.46,68.95-46.09a29.54,29.54,0,0,0-7.59-1.72s-11.62,5.88-26.12,14.6c-11,6.64-22.25,13.6-27.5,16.8Z" style="fill: rgb(69, 90, 100); transform-origin: 272.295px 258.18px;" id="elrlc9augcmuq" class="animable"></path>
        <path d="M260.49,284.32l-.29.18-.87.51-3.4,1.93-12.82,7.19,0,0h0c-8-.29-18.35-.5-30.18,0-5.91.26-12.19.68-18.73,1.35s-13.35,1.6-20.32,2.71c-12.21,1.9-23.72,4.31-34.26,6.24a234.45,234.45,0,0,1-28.25,3.39c-8.09.46-14.66.34-19.18.21-2.27-.07-4-.16-5.21-.23l-1.36-.09a4.35,4.35,0,0,1-.46,0s.16,0,.47,0l1.35,0c1.19,0,3,.1,5.21.14,4.53.07,11.08.13,19.16-.38A239.46,239.46,0,0,0,139.44,304c10.52-2,22.05-4.38,34.27-6.29,7-1.11,13.79-2,20.35-2.7s12.85-1.07,18.77-1.3c11.84-.46,22.17-.19,30.21.15l-.09,0,12.9-7,3.44-1.86.89-.47A1.35,1.35,0,0,1,260.49,284.32Z" style="fill: rgb(38, 50, 56); transform-origin: 172.825px 296.234px;" id="ela7t64du1v1l" class="animable"></path>
        <path d="M269.92,285.35c62.88-2.81,189.72-5.15,252.6-8,0,0,2.07-6.91-3.85-11.23-2.15-1.57-15.21-11.45-30.46-17.26a234.16,234.16,0,0,0-58.08-13.57c-11.2-.91-31.69-1.74-31.69-1.74s-37.51,1.5-48,2.44a108.32,108.32,0,0,0-38,10.34C299.39,252.87,276.58,272,276.58,272l-16,13.38Z" style="fill: rgb(69, 90, 100); transform-origin: 391.725px 259.465px;" id="elixwxdqyws8" class="animable"></path>
        <polygon points="385.64 231.74 373.5 283.63 395.51 282.93 399.88 231.74 385.64 231.74" style="fill: rgb(38, 50, 56); transform-origin: 386.69px 257.685px;" id="elcgd23od39jg" class="animable"></polygon>
        <polygon points="480.77 244.3 478.64 279.45 481.69 279.45 483.76 245.4 480.77 244.3" style="fill: rgb(38, 50, 56); transform-origin: 481.2px 261.875px;" id="elm2nk7yr9sqj" class="animable"></polygon>
        <path d="M272.3,273.45c1,1.29,6.55,13.85,6.55,13.85l-21.24-1.39Z" style="fill: rgb(38, 50, 56); transform-origin: 268.23px 280.375px;" id="elgi6mh2erwrs" class="animable"></path>
        <path d="M292.22,286.05,276,286.5c-2.13,0-3.81-3.82-3.74-8.47h0c.06-4.16,1.5-7.67,3.4-8.28l15.37-4.87Z" style="fill: rgb(76, 135, 255); transform-origin: 282.239px 275.69px;" id="el9ywfcolmm7l" class="animable"></path>
        <path d="M392.53,231.15c.14,0-1.58,11.84-3.83,26.41s-4.21,26.36-4.35,26.33,1.57-11.84,3.83-26.41S392.38,231.12,392.53,231.15Z" style="fill: rgb(69, 90, 100); transform-origin: 388.44px 257.52px;" id="el58e901hzloi" class="animable"></path>
        <path d="M272.93,272.68a19.06,19.06,0,0,1-2.48,5.34,18.66,18.66,0,0,1-3.61,4.65c-.12-.1,1.5-2.16,3.17-4.92S272.79,272.62,272.93,272.68Z" style="fill: rgb(69, 90, 100); transform-origin: 269.882px 277.674px;" id="el0tm2kdk599md" class="animable"></path>
        <path d="M362.68,241.18a2.18,2.18,0,0,1-.24.42l-.75,1.17c-.71,1.08-1.67,2.52-2.83,4.26-2.41,3.59-5.72,8.55-9.33,14.07s-6.82,10.54-9.14,14.18l-2.77,4.3c-.3.47-.56.85-.77,1.16a1.93,1.93,0,0,1-.29.39s.05-.16.2-.44l.69-1.21c.61-1.05,1.5-2.55,2.62-4.39,2.25-3.7,5.42-8.76,9-14.28s7-10.45,9.45-14c1.24-1.76,2.26-3.19,3-4.16.34-.44.61-.81.84-1.12S362.66,241.17,362.68,241.18Z" style="fill: rgb(235, 235, 235); transform-origin: 349.62px 261.154px;" id="eltr3tuufrpf" class="animable"></path>
        <path d="M353.45,249a76.5,76.5,0,0,1-4.95,7.38,73.61,73.61,0,0,1-5.37,7.08,77.12,77.12,0,0,1,4.95-7.38A74.78,74.78,0,0,1,353.45,249Z" style="fill: rgb(235, 235, 235); transform-origin: 348.29px 256.23px;" id="elo2g1em7c7m" class="animable"></path>
        <path d="M672.65,313.15s-5.22.33-9.16-1.36a12.08,12.08,0,0,1-6.27-16.21l.06-.12a11.31,11.31,0,0,1,9.91-6.4h2.18a13.91,13.91,0,0,1,1.42,5.2C671.38,299,672.27,306.27,672.65,313.15Z" style="fill: rgb(245, 245, 245); transform-origin: 664.375px 301.118px;" id="eluuv2wpg4dt" class="animable"></path>
        <path d="M441.66,242.86c.12.08-4.68,7.85-10.72,17.36s-11,17.15-11.16,17.07,4.67-7.84,10.72-17.35S441.54,242.78,441.66,242.86Z" style="fill: rgb(235, 235, 235); transform-origin: 430.719px 260.075px;" id="elc80wtspev6f" class="animable"></path>
        <path d="M440,252.67a46.87,46.87,0,0,1-3.58,6,46.8,46.8,0,0,1-4,5.75,47.73,47.73,0,0,1,3.59-6A47.1,47.1,0,0,1,440,252.67Z" style="fill: rgb(235, 235, 235); transform-origin: 436.21px 258.545px;" id="elqkn8lejh3m" class="animable"></path>
        <path d="M288.51,267.89A41.34,41.34,0,0,1,276,271.54c0-.15,2.8-.82,6.24-1.83S288.46,267.75,288.51,267.89Z" style="fill: rgb(235, 235, 235); transform-origin: 282.255px 269.708px;" id="elhc03u3zrgaa" class="animable"></path>
        <path d="M375.56,289.86c0,.15-26.39.26-58.93.26s-58.94-.11-58.94-.26,26.38-.26,58.94-.26S375.56,289.72,375.56,289.86Z" style="fill: rgb(235, 235, 235); transform-origin: 316.625px 289.86px;" id="ellll3w642h2j" class="animable"></path>
        <path d="M366.9,300.34a69.24,69.24,0,0,1-8.56.26,69.22,69.22,0,0,1-8.57-.26,71.65,71.65,0,0,1,8.57-.26A71.68,71.68,0,0,1,366.9,300.34Z" style="fill: rgb(235, 235, 235); transform-origin: 358.335px 300.342px;" id="elpwh5p5d3oo" class="animable"></path>
        <path d="M175.28,312.22a3.45,3.45,0,0,1-.66,0c-.43,0-1.06,0-1.87,0a56.34,56.34,0,0,0-6.84.42,52.61,52.61,0,0,0-37.41,22.84,55.9,55.9,0,0,0-3.5,5.89c-.39.72-.64,1.29-.84,1.67a2.56,2.56,0,0,1-.32.57,3.88,3.88,0,0,1,.23-.61c.17-.39.39-1,.75-1.72a47.93,47.93,0,0,1,3.37-6,51.46,51.46,0,0,1,37.68-23,46.89,46.89,0,0,1,6.89-.26c.81,0,1.44.09,1.87.12A2.68,2.68,0,0,1,175.28,312.22Z" style="fill: rgb(235, 235, 235); transform-origin: 149.56px 327.8px;" id="el7pmj15ask9a" class="animable"></path>
        <path d="M476.7,287.09c0,.14-17.47.26-39,.26s-39-.12-39-.26,17.46-.26,39-.26S476.7,286.94,476.7,287.09Z" style="fill: rgb(235, 235, 235); transform-origin: 437.7px 287.09px;" id="elt3iq8n7hug" class="animable"></path>
        <path d="M510.92,298.81a16.61,16.61,0,0,1-2.82,0c-1.74,0-4.14-.09-6.79-.11s-5.05,0-6.79,0a16,16,0,0,1-2.82-.05,14.32,14.32,0,0,1,2.81-.32c1.74-.11,4.14-.2,6.8-.19s5.07.13,6.81.27A13.57,13.57,0,0,1,510.92,298.81Z" style="fill: rgb(235, 235, 235); transform-origin: 501.31px 298.505px;" id="eldm31hmwl3hl" class="animable"></path>
    </g>
    <g id="freepik--Character--inject-83" class="animable" style="transform-origin: 554.594px 292.463px;">
        <path d="M574.24,208.17h0a7,7,0,0,1-7-7l0-8s-5.75-.9-5.82-6.65.93-19,.93-19h0a20,20,0,0,1,20.09,2.53h0l-1.36,31.62A6.94,6.94,0,0,1,574.24,208.17Z" style="fill: rgb(183, 136, 118); transform-origin: 571.928px 187.034px;" id="elbe86u9c8n2t" class="animable"></path>
        <path d="M567.32,193.12a13.41,13.41,0,0,0,7.5-2.14s-1.78,4.15-7.52,3.63Z" style="fill: rgb(170, 101, 80); transform-origin: 571.06px 192.818px;" id="el874t0i6nqu8" class="animable"></path>
        <path d="M581.88,176.72c.1,0,4-1.16,3.83,2.77s-4.05,3-4.05,2.88S581.88,176.72,581.88,176.72Z" style="fill: rgb(183, 136, 118); transform-origin: 583.688px 179.555px;" id="elrnoxdamgsll" class="animable"></path>
        <path d="M582.91,180.92s.06.05.18.11a.66.66,0,0,0,.51,0,1.67,1.67,0,0,0,.83-1.49,2.27,2.27,0,0,0-.16-1,.78.78,0,0,0-.5-.54.34.34,0,0,0-.41.17c-.05.11,0,.19-.05.2s-.08-.07,0-.23a.42.42,0,0,1,.17-.24.48.48,0,0,1,.38-.09,1,1,0,0,1,.69.63,2.33,2.33,0,0,1,.21,1.1,1.76,1.76,0,0,1-1.06,1.67.77.77,0,0,1-.62-.12C582.91,181,582.89,180.93,582.91,180.92Z" style="fill: rgb(170, 101, 80); transform-origin: 583.834px 179.516px;" id="elai7re0l6cfs" class="animable"></path>
        <path d="M564.51,176.5a.83.83,0,0,0,.8.83.78.78,0,0,0,.84-.74.81.81,0,0,0-.79-.83A.79.79,0,0,0,564.51,176.5Z" style="fill: rgb(38, 50, 56); transform-origin: 565.33px 176.545px;" id="el7rfnswejk0m" class="animable"></path>
        <path d="M563.51,175.68c.11.1.73-.36,1.61-.35s1.54.44,1.63.33-.06-.24-.34-.45a2.3,2.3,0,0,0-1.3-.4,2.18,2.18,0,0,0-1.28.42C563.56,175.44,563.46,175.63,563.51,175.68Z" style="fill: rgb(38, 50, 56); transform-origin: 565.137px 175.252px;" id="el0v8kk3g4kb1" class="animable"></path>
        <path d="M573.17,176.5a.83.83,0,0,0,.8.83.78.78,0,0,0,.84-.74.81.81,0,0,0-.79-.83A.79.79,0,0,0,573.17,176.5Z" style="fill: rgb(38, 50, 56); transform-origin: 573.99px 176.545px;" id="elsg8ukcvno1" class="animable"></path>
        <path d="M572.21,175.84c.1.11.72-.35,1.61-.35s1.53.45,1.62.34-.05-.24-.34-.45a2.2,2.2,0,0,0-1.3-.4,2.14,2.14,0,0,0-1.28.41C572.25,175.6,572.16,175.79,572.21,175.84Z" style="fill: rgb(38, 50, 56); transform-origin: 573.832px 175.418px;" id="eljcv7p7k9v2j" class="animable"></path>
        <path d="M569,182.4a5.74,5.74,0,0,0-1.44-.26c-.22,0-.44-.07-.48-.22a1.17,1.17,0,0,1,.15-.67c.22-.55.44-1.12.67-1.72a29,29,0,0,0,1.5-4.5,30.14,30.14,0,0,0-1.86,4.37c-.22.6-.43,1.18-.64,1.73a1.29,1.29,0,0,0-.11.88.53.53,0,0,0,.37.33,1.42,1.42,0,0,0,.38.06A5.65,5.65,0,0,0,569,182.4Z" style="fill: rgb(38, 50, 56); transform-origin: 568.079px 178.739px;" id="elrxpk11am82" class="animable"></path>
        <path d="M571.6,183c-.14,0-.15,1-1,1.63s-1.84.58-1.85.71.23.19.66.2A2.38,2.38,0,0,0,571,185a2.09,2.09,0,0,0,.75-1.36C571.77,183.24,571.67,183,571.6,183Z" style="fill: rgb(38, 50, 56); transform-origin: 570.251px 184.271px;" id="elcdht0f18wdk" class="animable"></path>
        <path d="M572,172.38c.09.24,1,.12,2,.25s1.87.41,2,.19-.08-.33-.42-.56a3.3,3.3,0,0,0-1.5-.52,3.4,3.4,0,0,0-1.57.18C572.13,172.07,571.94,172.26,572,172.38Z" style="fill: rgb(38, 50, 56); transform-origin: 574.014px 172.309px;" id="el8p9j1ji948u" class="animable"></path>
        <path d="M563.84,173.12c.15.2.76,0,1.5,0s1.35.14,1.49-.07,0-.31-.3-.5a2.17,2.17,0,0,0-2.42.08C563.86,172.81,563.77,173,563.84,173.12Z" style="fill: rgb(38, 50, 56); transform-origin: 565.351px 172.714px;" id="el20iyhqdgmlr" class="animable"></path>
        <path d="M559.62,164a2.14,2.14,0,0,1,.79-1.9,1.5,1.5,0,0,1,2,.15,1.77,1.77,0,0,1,1.51-2.14c.94-.05,1.74.65,2.65.9a4.16,4.16,0,0,0,2.68-.31c.85-.34,1.65-.81,2.51-1.13a7.36,7.36,0,0,1,9.41,4.32,3.29,3.29,0,0,1,3.47,1.31,5.43,5.43,0,0,1,.82,3.78,12.22,12.22,0,0,1-.66,2.58c0,.08,0,.15,0,.22-.06,3.17-.42,6.88-1.77,6.9-2.35,0-1.79-4.39-1.79-4.39-2.89-1.12-1.81-5.45-2.54-6.1s-2.23-2.18-8.27.91a11.7,11.7,0,0,1-7.18.77l-.15,0h0l0,0a5.43,5.43,0,0,1-1.55-.65,3.08,3.08,0,0,1-1.28-1.42,1.69,1.69,0,0,1,.33-1.81A3.64,3.64,0,0,1,559.62,164Z" style="fill: rgb(38, 50, 56); transform-origin: 572.565px 168.902px;" id="el9gmds910ecf" class="animable"></path>
        <path d="M630.75,202.85c-.14.24-1.78,3.33-1.78,3.33s1.3-5.05,1.35-5.23c.42-1.65-.6-1.48-.9-.89s-2.15,5.57-2.15,5.57c1.73-6.48,1.19-7.06.7-7.16s-2,5.83-2,5.83a5.55,5.55,0,0,0-1.57-1.71c-1.57-1.08-4.18,0-4.3.74s.8.94.8.94a2.36,2.36,0,0,1,3.77,2.14,1.47,1.47,0,0,1-2.87.28c-.65-2.92-1.65-2-1.65-2l1,6.45-1.06,3.24-5.84,15.83-11.16-11.62s-6,13.19-6.1,13.63,5.59,6.22,9.33,10.07a10.56,10.56,0,0,0,17.85-5l4.41-22.73,2.07-7.45s.74-3,.92-3.73C631.8,202.51,631.14,202.22,630.75,202.85Z" style="fill: rgb(183, 136, 118); transform-origin: 614.303px 221.973px;" id="elz3qpsegtupc" class="animable"></path>
        <path d="M531.61,247.26c3.33.59,7.15-1.81,9.2-4.5l8.31-10.95-9.77-8.71L530.6,234l-32.86-1.74L490,227.94a2.73,2.73,0,0,0-1.75-.32l-10.68,3,10,3.08,17.49,6.58Z" style="fill: rgb(183, 136, 118); transform-origin: 513.345px 235.225px;" id="elnznq8xbs7g" class="animable"></path>
        <path d="M606.09,408.31l1.38,5.79s9.46,12.28,12.38,11.68c1.91-.39-.44-3.6-4-12.93l-.75-3.85Z" style="fill: rgb(76, 135, 255); transform-origin: 613.311px 417.056px;" id="eloqebptuct2" class="animable"></path>
        <path d="M620.23,424a.62.62,0,0,1-.07.17,1,1,0,0,1-.4.37,1.61,1.61,0,0,1-.84.19,2.24,2.24,0,0,1-1.07-.4,44.6,44.6,0,0,1-4.77-4.44,60.24,60.24,0,0,1-4.23-4.95c-.5-.67-.9-1.21-1.16-1.6-.11-.15-.21-.3-.3-.44a1.43,1.43,0,0,1-.1-.16s.05,0,.13.14l.33.42,1.21,1.56c1,1.3,2.5,3.07,4.25,4.9a52.41,52.41,0,0,0,4.71,4.46,1.75,1.75,0,0,0,1.81.26A1.22,1.22,0,0,0,620.23,424Z" style="fill: rgb(38, 50, 56); transform-origin: 613.76px 418.736px;" id="elbxwtoeor67t" class="animable"></path>
        <path d="M618.89,420s-.3,0-.76,0a4.4,4.4,0,0,0-1.7.64,3.46,3.46,0,0,0-1.28,1.28c-.23.41-.29.7-.32.7a1.64,1.64,0,0,1,.2-.76,3.35,3.35,0,0,1,1.3-1.38,4.06,4.06,0,0,1,1.78-.61A1.38,1.38,0,0,1,618.89,420Z" style="fill: rgb(38, 50, 56); transform-origin: 616.86px 421.24px;" id="elfvkvej85fdd" class="animable"></path>
        <path d="M609.94,417.13s.1-.41.17-1.08a4.49,4.49,0,0,0-.47-2.53,4.18,4.18,0,0,0-1.81-1.83,6.23,6.23,0,0,0-1-.37,1,1,0,0,1,.3,0,3.31,3.31,0,0,1,.79.24,4.07,4.07,0,0,1,1.91,1.86,4.27,4.27,0,0,1,.44,2.64,4.58,4.58,0,0,1-.19.79C610,417,610,417.14,609.94,417.13Z" style="fill: rgb(38, 50, 56); transform-origin: 608.575px 414.22px;" id="el96kzwh1j588" class="animable"></path>
        <path d="M606.7,409.29a6.1,6.1,0,0,1,.52,1.82c.17,1,.36,1.83.32,1.85a5.76,5.76,0,0,1-.5-1.82C606.86,410.12,606.65,409.31,606.7,409.29Z" style="fill: rgb(38, 50, 56); transform-origin: 607.119px 411.125px;" id="ellpsypxai33" class="animable"></path>
        <path d="M616,413.67c0,.05-.54,0-1.17.18s-1.11.4-1.14.35a2.14,2.14,0,0,1,1.09-.53A2.1,2.1,0,0,1,616,413.67Z" style="fill: rgb(38, 50, 56); transform-origin: 614.845px 413.893px;" id="elgs7fbizlzi" class="animable"></path>
        <path d="M616.17,414.66s-.45,0-1,.13-.9.37-.94.32a1.54,1.54,0,0,1,.9-.5A1.42,1.42,0,0,1,616.17,414.66Z" style="fill: rgb(38, 50, 56); transform-origin: 615.2px 414.826px;" id="el0o2j60jpi4bn" class="animable"></path>
        <path d="M616.93,415.9a5,5,0,0,0-1,0,6.81,6.81,0,0,0-.94.4,1.25,1.25,0,0,1,.9-.58A1.22,1.22,0,0,1,616.93,415.9Z" style="fill: rgb(38, 50, 56); transform-origin: 615.96px 415.987px;" id="elz9qkx45lwut" class="animable"></path>
        <path d="M615.33,413.25a1.27,1.27,0,0,1-.32,0,6.6,6.6,0,0,1-.84-.23,8.58,8.58,0,0,1-1.18-.52,5.72,5.72,0,0,1-.64-.41,1,1,0,0,1-.48-.72.56.56,0,0,1,.72-.46,1.46,1.46,0,0,1,.66.45,10.07,10.07,0,0,1,.87.94c.23.29.41.53.52.7a1.18,1.18,0,0,1,.16.27s-.29-.34-.78-.88c-.24-.27-.54-.58-.89-.91a1.33,1.33,0,0,0-.58-.39c-.21-.05-.49.06-.49.29s.2.42.39.57.42.28.63.4a8.93,8.93,0,0,0,1.14.55C614.89,413.13,615.33,413.22,615.33,413.25Z" style="fill: rgb(38, 50, 56); transform-origin: 613.6px 412.078px;" id="elhy5hsu1z0g" class="animable"></path>
        <path d="M614.83,413.13a.81.81,0,0,1,0-.29c0-.18,0-.45.06-.78a4.17,4.17,0,0,1,.3-1.15,2.27,2.27,0,0,1,.37-.6.62.62,0,0,1,.76-.24.74.74,0,0,1,.26.75,2.71,2.71,0,0,1-.21.68,3.37,3.37,0,0,1-.67,1,4.48,4.48,0,0,1-.61.52c-.15.1-.24.15-.25.14s.32-.26.76-.75a3.31,3.31,0,0,0,.61-.95,2.56,2.56,0,0,0,.19-.63c0-.21,0-.48-.17-.57s-.39,0-.54.2a2.69,2.69,0,0,0-.35.55,4.45,4.45,0,0,0-.32,1.1A9.63,9.63,0,0,1,614.83,413.13Z" style="fill: rgb(38, 50, 56); transform-origin: 615.708px 411.592px;" id="el6rws2m6bh0r" class="animable"></path>
        <g id="elsunpjebphvj">
            <g style="opacity: 0.4; transform-origin: 613.641px 418.553px;" class="animable">
                <path d="M607.47,414.1l-.67-2.78s2.32.43,2.92,2.16a7.43,7.43,0,0,1,.46,3l5,5.43s1.27-2.47,3.56-1.88c0,0,1.8,4,1.74,4.95s-1.21.88-1.62.69a20.35,20.35,0,0,1-4.51-3.56C611.71,419.31,608.76,415.8,607.47,414.1Z" id="ele04aeq911a6" class="animable" style="transform-origin: 613.641px 418.553px;"></path>
            </g>
        </g>
        <path d="M559.07,411.24l-.05-7.72,14.45-.17.19,11.28-.9.07c-4,.27-20.28,1.09-23,.31C546.83,414.15,559.07,411.24,559.07,411.24Z" style="fill: rgb(76, 135, 255); transform-origin: 561.483px 409.344px;" id="elqav09r9op8" class="animable"></path>
        <g id="el9d6teduvw16">
            <g style="opacity: 0.4; transform-origin: 571.005px 412.48px;" class="animable">
                <path d="M568.42,414.58a5,5,0,0,1,1.8-3.1,4.82,4.82,0,0,1,3.37-1.09l0,4Z" id="el4a7zetb6a1i" class="animable" style="transform-origin: 571.005px 412.48px;"></path>
            </g>
        </g>
        <g id="elsssrtxmt8a">
            <g style="opacity: 0.4; transform-origin: 561.481px 414.085px;" class="animable">
                <path d="M553.09,412.87s-4.29,1.3-3.74,2,17,.49,24.31-.24l0-.32-19.24.41S553.93,412.9,553.09,412.87Z" id="elrx5sorwuon" class="animable" style="transform-origin: 561.481px 414.085px;"></path>
            </g>
        </g>
        <path d="M573.86,414.3l-.25,0-.71.05-2.63.15c-2.22.1-5.28.21-8.67.26s-6.45,0-8.67,0l-2.63-.08-.71,0-.25,0h1l2.63,0c2.22,0,5.28,0,8.67,0s6.45-.13,8.67-.21l2.62-.09.72,0Z" style="fill: rgb(38, 50, 56); transform-origin: 561.6px 414.541px;" id="el34nwi7s33mx" class="animable"></path>
        <path d="M554.4,414.94a7,7,0,0,0-.51-1.25,6.12,6.12,0,0,0-.91-1,2.33,2.33,0,0,1,1.42,2.24Z" style="fill: rgb(38, 50, 56); transform-origin: 553.691px 413.815px;" id="elo36tox051j" class="animable"></path>
        <path d="M558.63,412.72s-.25-.21-.46-.54-.36-.62-.32-.65.25.22.47.55S558.67,412.7,558.63,412.72Z" style="fill: rgb(38, 50, 56); transform-origin: 558.24px 412.124px;" id="elifx8xa54fps" class="animable"></path>
        <path d="M559.79,412.09s-.26-.11-.51-.33-.43-.43-.4-.47.26.12.52.34S559.83,412.05,559.79,412.09Z" style="fill: rgb(38, 50, 56); transform-origin: 559.336px 411.687px;" id="el78mmzmpt2yg" class="animable"></path>
        <path d="M560.52,410.72a1.76,1.76,0,0,1-.76.1,1.65,1.65,0,0,1-.75-.07,1.89,1.89,0,0,1,.75-.1A1.71,1.71,0,0,1,560.52,410.72Z" style="fill: rgb(38, 50, 56); transform-origin: 559.765px 410.735px;" id="elnrh6ht0y1u" class="animable"></path>
        <path d="M560.76,409.75a1.41,1.41,0,0,1-.84.26,1.44,1.44,0,0,1-.87-.11,5.55,5.55,0,0,1,.85-.07A7.5,7.5,0,0,1,560.76,409.75Z" style="fill: rgb(38, 50, 56); transform-origin: 559.905px 409.892px;" id="elpckws6bpycn" class="animable"></path>
        <path d="M558.13,411.47a2.67,2.67,0,0,1-.93,0,5.35,5.35,0,0,1-1-.21,2.68,2.68,0,0,1-.57-.22.5.5,0,0,1-.24-.29.36.36,0,0,1,.14-.37,1.69,1.69,0,0,1,2.11.47,1.58,1.58,0,0,1,.31.61.53.53,0,0,1,0,.25,2.75,2.75,0,0,0-.43-.78,1.71,1.71,0,0,0-.8-.51,1.48,1.48,0,0,0-1.11.09c-.14.11-.09.29.08.38a2.39,2.39,0,0,0,.52.22,6.86,6.86,0,0,0,1,.23C557.77,411.45,558.13,411.44,558.13,411.47Z" style="fill: rgb(38, 50, 56); transform-origin: 556.756px 410.952px;" id="elu8nkod6d3e" class="animable"></path>
        <path d="M557.89,411.52a.85.85,0,0,1-.12-.64,1.49,1.49,0,0,1,.25-.69.93.93,0,0,1,.76-.48.36.36,0,0,1,.29.43.88.88,0,0,1-.15.41,2.49,2.49,0,0,1-.43.57c-.29.29-.52.4-.53.38s.19-.17.44-.46a3.88,3.88,0,0,0,.38-.56c.13-.2.21-.56,0-.6s-.46.22-.6.41a1.54,1.54,0,0,0-.26.6A3.56,3.56,0,0,0,557.89,411.52Z" style="fill: rgb(38, 50, 56); transform-origin: 558.415px 410.615px;" id="elpu9oyta80zk" class="animable"></path>
        <path d="M573.51,410.35a10.32,10.32,0,0,0-1.07,0,4.67,4.67,0,0,0-2.31,1,4.57,4.57,0,0,0-1.43,2.07c-.21.63-.23,1-.26,1a.85.85,0,0,1,0-.29,4.68,4.68,0,0,1,.15-.78,4.38,4.38,0,0,1,3.85-3.15,3.39,3.39,0,0,1,.8,0A.77.77,0,0,1,573.51,410.35Z" style="fill: rgb(38, 50, 56); transform-origin: 570.969px 412.298px;" id="elm3yh2lmtdr" class="animable"></path>
        <path d="M571.94,404.35a24.94,24.94,0,0,1,.16,3,25.53,25.53,0,0,1,0,3,26.14,26.14,0,0,1-.17-3A24.29,24.29,0,0,1,571.94,404.35Z" style="fill: rgb(38, 50, 56); transform-origin: 572.016px 407.35px;" id="eluurs8h25gat" class="animable"></path>
        <path d="M566.58,413.2a8.37,8.37,0,0,1-2.11.23,7.85,7.85,0,0,1-2.11-.14c0-.05.95,0,2.11,0S566.57,413.15,566.58,413.2Z" style="fill: rgb(38, 50, 56); transform-origin: 564.47px 413.319px;" id="elvoemalnvvvp" class="animable"></path>
        <path d="M569.41,413.16s-.07.2-.17.41-.14.41-.19.41-.08-.23,0-.48S569.38,413.12,569.41,413.16Z" style="fill: rgb(38, 50, 56); transform-origin: 569.205px 413.566px;" id="elqocww0u6cu" class="animable"></path>
        <path d="M570.46,411.81s-.05.19-.2.34-.3.25-.33.22.05-.19.2-.34S570.43,411.78,570.46,411.81Z" style="fill: rgb(38, 50, 56); transform-origin: 570.192px 412.09px;" id="elrghbeyjzo8c" class="animable"></path>
        <path d="M572,411.19c0,.05-.2.05-.41.13s-.36.19-.4.15.08-.23.34-.32S572,411.14,572,411.19Z" style="fill: rgb(38, 50, 56); transform-origin: 571.591px 411.294px;" id="elp4h7267ke" class="animable"></path>
        <path d="M573.06,410.89s-.06.12-.18.17-.23.05-.25,0,.07-.12.19-.17S573.05,410.84,573.06,410.89Z" style="fill: rgb(38, 50, 56); transform-origin: 572.844px 410.975px;" id="eltgwoa87r4pq" class="animable"></path>
        <polygon points="621.44 409.34 592.87 258.04 553.16 264.09 555.98 407.91 578.48 408.38 574.74 282.91 600.05 409.34 621.44 409.34" style="fill: rgb(69, 90, 100); transform-origin: 587.3px 333.69px;" id="el4wkvrhh2qeu" class="animable"></polygon>
        <path d="M597.26,272.51l-45.39-1.69,1.29-41.43-5.95,6.79-12.14-10.51,13.35-18.19a21.59,21.59,0,0,1,14.46-8.55c1.69-.23,3-.35,3.82-.45a24.54,24.54,0,0,0,14.81,0h0a20.05,20.05,0,0,1,6.13,1.18,25.08,25.08,0,0,1,9.78,6.33h0l14.89,20.13-12.73,11-7.25-6.38Z" style="fill: rgb(38, 50, 56); transform-origin: 573.69px 235.495px;" id="elphtb8zws55" class="animable"></path>
        <path d="M553.84,213.75c.14,0,0,6.9-.32,15.39s-.69,15.38-.83,15.37,0-6.89.31-15.39S553.69,213.75,553.84,213.75Z" style="fill: rgb(69, 90, 100); transform-origin: 553.265px 229.13px;" id="el4eaca2tdutr" class="animable"></path>
        <path d="M590.72,216.47a74.4,74.4,0,0,1,1.12,8.9,78.34,78.34,0,0,1,.61,8.95,74.4,74.4,0,0,1-1.12-8.9A78.34,78.34,0,0,1,590.72,216.47Z" style="fill: rgb(69, 90, 100); transform-origin: 591.585px 225.395px;" id="ela5ilgnmxhe5" class="animable"></path>
        <path d="M568.5,198.93c.09.12-.26.53-.77.94s-1,.63-1.09.52.26-.53.77-.94S568.41,198.82,568.5,198.93Z" style="fill: rgb(69, 90, 100); transform-origin: 567.57px 199.66px;" id="elt4f8ffztvu" class="animable"></path>
        <path d="M570.56,199.38c.13.07,0,.49-.1,1s-.27.88-.42.87-.23-.47-.08-1S570.44,199.31,570.56,199.38Z" style="fill: rgb(69, 90, 100); transform-origin: 570.247px 200.311px;" id="el06ptq2cqed2l" class="animable"></path>
        <path d="M572.91,199.68c.15,0,.28.38.31.87s-.08.88-.22.89-.28-.38-.3-.87S572.77,199.68,572.91,199.68Z" style="fill: rgb(69, 90, 100); transform-origin: 572.961px 200.56px;" id="eli1963fjlg7b" class="animable"></path>
        <path d="M575.93,199.45c.15,0,.27.42.41.92s.23.93.11,1-.46-.29-.62-.86S575.79,199.45,575.93,199.45Z" style="fill: rgb(69, 90, 100); transform-origin: 576.13px 200.414px;" id="el1u7bhbe3ac6" class="animable"></path>
        <path d="M579.3,199.09c.14-.05.37.25.64.61s.5.66.41.78-.5,0-.82-.47S579.17,199.14,579.3,199.09Z" style="fill: rgb(69, 90, 100); transform-origin: 579.8px 199.804px;" id="elv1qpwdr5p09" class="animable"></path>
        <path d="M581.07,198.58c.08-.12.43,0,.77.19s.56.5.48.62-.42,0-.76-.18S581,198.7,581.07,198.58Z" style="fill: rgb(69, 90, 100); transform-origin: 581.697px 198.985px;" id="elljshuq4exhr" class="animable"></path>
        <path d="M591.67,226.31c0,.15-8.51.27-19,.28s-19-.11-19-.25,8.51-.27,19-.28S591.67,226.17,591.67,226.31Z" style="fill: rgb(250, 250, 250); transform-origin: 572.67px 226.325px;" id="eljxyhm6cucnh" class="animable"></path>
        <path d="M592,229.12c0,.15-8.51.27-19,.28s-19-.11-19-.25,8.51-.27,19-.27S592,229,592,229.12Z" style="fill: rgb(250, 250, 250); transform-origin: 573px 229.14px;" id="el9vafsviflq" class="animable"></path>
        <path d="M592.33,231.93c0,.15-8.75.34-19.53.44s-19.54,0-19.54-.09,8.74-.34,19.53-.43S592.33,231.79,592.33,231.93Z" style="fill: rgb(250, 250, 250); transform-origin: 572.795px 232.105px;" id="eluugymbtdwcf" class="animable"></path>
        <path d="M604.66,215.48a10.1,10.1,0,0,1-1.62,1.79c-1.06,1-2.58,2.45-4.32,3.92s-3.37,2.73-4.58,3.6a10.94,10.94,0,0,1-2,1.31,12,12,0,0,1,1.81-1.6l4.48-3.71,4.4-3.79A13.14,13.14,0,0,1,604.66,215.48Z" style="fill: rgb(250, 250, 250); transform-origin: 598.4px 220.79px;" id="el8q91oeaqget" class="animable"></path>
        <path d="M607,218a14.26,14.26,0,0,1-1.93,1.9c-1.24,1.11-3,2.59-5,4.15s-3.9,2.88-5.3,3.79a13.21,13.21,0,0,1-2.33,1.38,14.2,14.2,0,0,1,2.12-1.68c1.34-1,3.18-2.36,5.2-3.9s3.8-3,5.1-4A14.46,14.46,0,0,1,607,218Z" style="fill: rgb(250, 250, 250); transform-origin: 599.72px 223.61px;" id="el81kg8ptp64q" class="animable"></path>
        <path d="M608.13,220.37a79.58,79.58,0,0,1-6.79,6.16,80.71,80.71,0,0,1-7.14,5.75,81.77,81.77,0,0,1,6.8-6.15A84.74,84.74,0,0,1,608.13,220.37Z" style="fill: rgb(250, 250, 250); transform-origin: 601.165px 226.325px;" id="elmw2chlvj0fo" class="animable"></path>
        <path d="M553.3,227.19a7.09,7.09,0,0,1-1.93-1.18,33.11,33.11,0,0,1-4-3.7c-1.46-1.54-2.75-3-3.67-4a10.16,10.16,0,0,1-1.41-1.76,9.93,9.93,0,0,1,1.68,1.5c1,1,2.32,2.36,3.78,3.9a51.92,51.92,0,0,0,3.85,3.77A18.8,18.8,0,0,1,553.3,227.19Z" style="fill: rgb(250, 250, 250); transform-origin: 547.795px 221.87px;" id="elze8c97kku" class="animable"></path>
        <path d="M552,230.62a10.75,10.75,0,0,1-2-1.46c-1.15-1-2.71-2.35-4.34-4s-3.06-3.13-4-4.27a10.53,10.53,0,0,1-1.49-1.93,13,13,0,0,1,1.76,1.68c1,1.07,2.5,2.55,4.13,4.15s3.14,3,4.23,4A11.81,11.81,0,0,1,552,230.62Z" style="fill: rgb(250, 250, 250); transform-origin: 546.085px 224.79px;" id="el949rnvzw95" class="animable"></path>
        <path d="M550.62,233.06a13,13,0,0,1-1.82-1.68c-1.08-1.07-2.58-2.54-4.28-4.13s-3.28-3-4.43-4a14.17,14.17,0,0,1-1.81-1.68,10,10,0,0,1,2.05,1.4c1.21.93,2.84,2.28,4.55,3.87s3.17,3.12,4.19,4.26A11.07,11.07,0,0,1,550.62,233.06Z" style="fill: rgb(250, 250, 250); transform-origin: 544.45px 227.315px;" id="elnnuk6pxvcl" class="animable"></path>
        <path d="M597.17,270.6c0,.14-10.09,0-22.53-.31s-22.52-.68-22.52-.82,10.09,0,22.53.3S597.17,270.45,597.17,270.6Z" style="fill: rgb(69, 90, 100); transform-origin: 574.645px 270.035px;" id="elaupju9z3w8w" class="animable"></path>
    </g>
    <g id="freepik--Plant--inject-83" class="animable animator-active" style="transform-origin: 697.911px 385.75px;">
        <path d="M698.5,357a10.79,10.79,0,0,1,5.47,6.43,19.13,19.13,0,0,1,.58,8.58c-.74,5.55-4,11.1-7.49,15.48-4.6-4.17-5.55-11.32-5.8-15-.39-5.77,2.4-16.46,7.24-15.51" style="fill: rgb(76, 135, 255); transform-origin: 698.008px 372.205px;" id="elk2sbegpjodp" class="animable"></path>
        <path d="M702.33,396.79a9.18,9.18,0,0,1,3.14-8.68,12.2,12.2,0,0,1,9-2.64,5.11,5.11,0,0,1,3.92,1.85,3.91,3.91,0,0,1,0,4,7.93,7.93,0,0,1-3,2.85c-4.1,2.47-8.53,4.11-13.09,2.64" style="fill: rgb(76, 135, 255); transform-origin: 710.561px 391.382px;" id="el9yy96yx28zu" class="animable"></path>
        <path d="M696,413.73a6.16,6.16,0,0,1,.18-1.14c.17-.8.38-1.84.63-3.08a32.15,32.15,0,0,1,3.37-9.8,19.82,19.82,0,0,1,7.22-7.39,13,13,0,0,1,2.91-1.22,6.31,6.31,0,0,1,.84-.2c.19,0,.29,0,.29,0a20.84,20.84,0,0,0-3.9,1.7,20.38,20.38,0,0,0-7,7.34,35,35,0,0,0-3.44,9.66c-.31,1.29-.56,2.34-.75,3.05A7.2,7.2,0,0,1,696,413.73Z" style="fill: rgb(38, 50, 56); transform-origin: 703.72px 402.315px;" id="elf5tlrso5w2u" class="animable"></path>
        <path d="M697.09,365.35a2,2,0,0,1,0,.5c0,.37,0,.84.06,1.43,0,1.25.08,3.05.11,5.28.06,4.46.06,10.62-.1,17.42s-.44,12.95-.7,17.41c-.14,2.22-.26,4-.36,5.26,0,.59-.09,1.06-.13,1.43a1.82,1.82,0,0,1-.07.5,3.8,3.8,0,0,1,0-.5c0-.37,0-.85,0-1.44.06-1.29.13-3.08.23-5.27.19-4.45.43-10.6.59-17.4s.2-13,.21-17.41c0-2.19,0-4,0-5.28,0-.59,0-1.06,0-1.43A3.21,3.21,0,0,1,697.09,365.35Z" style="fill: rgb(38, 50, 56); transform-origin: 696.594px 389.965px;" id="elc28vn833g26" class="animable"></path>
        <path d="M694.17,400a21.52,21.52,0,0,0-11.45-16c-1.55-.78-3.58-1.3-4.89-.17s-1.06,3.24-.46,4.87a18.37,18.37,0,0,0,16.68,11.73" style="fill: rgb(76, 135, 255); transform-origin: 685.526px 391.803px;" id="elmqfal2jeu7" class="animable"></path>
        <path d="M683.38,389.34a5.7,5.7,0,0,1,1,.45,12.62,12.62,0,0,1,1.11.62c.41.27.92.54,1.41.92a18.12,18.12,0,0,1,1.61,1.27,19.43,19.43,0,0,1,1.71,1.61,22,22,0,0,1,5.32,9.28,22.12,22.12,0,0,1,.5,2.29,16,16,0,0,1,.24,2,14.21,14.21,0,0,1,.05,1.68,11.25,11.25,0,0,1-.06,1.27,5.06,5.06,0,0,1-.14,1.08c-.09,0,.1-1.55-.13-4a18.2,18.2,0,0,0-.29-2,21.91,21.91,0,0,0-.53-2.25,24.49,24.49,0,0,0-2.08-4.87,24.81,24.81,0,0,0-3.15-4.25,20.88,20.88,0,0,0-1.66-1.62,20.12,20.12,0,0,0-1.56-1.28C684.74,390.09,683.34,389.42,683.38,389.34Z" style="fill: rgb(38, 50, 56); transform-origin: 689.858px 400.575px;" id="eljoawyhmx77d" class="animable"></path>
    </g>
    <g id="freepik--speech-bubble--inject-83" class="animable" style="transform-origin: 527.788px 172.694px;">
        <path d="M532.76,168.17a3.84,3.84,0,0,0-5.36.82,3.83,3.83,0,0,0-5.43-.93,4.35,4.35,0,0,0-.67,5.52c1.51,2.36,4.37,3.38,6.14,5.51,1.78-2.13,4.49-3,6-5.4A4.35,4.35,0,0,0,532.76,168.17Z" style="fill: rgb(76, 135, 255); transform-origin: 527.368px 173.204px;" id="el3f6eahqpxg2" class="animable"></path>
        <path d="M547,189.21l-.65-.09-2-.29-7.52-1.15.1,0a18,18,0,0,1-9.08,3.14,18.16,18.16,0,1,1,11.94-30.75,18,18,0,0,1,5,11,17.76,17.76,0,0,1-1.73,9.4v-.12l2.9,6.6.75,1.71c.16.38.24.57.23.56l-.08-.16-.22-.45-.81-1.72-3-6.42,0-.06,0-.06a17.73,17.73,0,1,0-26.27,6.82,17.76,17.76,0,0,0,20.21.26l.05,0h0l7.39,1.31,2,.36.52.1Z" style="fill: rgb(38, 50, 56); transform-origin: 527.788px 172.694px;" id="el7a4o35s7yuh" class="animable"></path>
    </g>
    <defs>
        <filter id="active" height="200%">
            <feMorphology in="SourceAlpha" result="DILATED" operator="dilate" radius="2"></feMorphology>
            <feFlood flood-color="#32DFEC" flood-opacity="1" result="PINK"></feFlood>
            <feComposite in="PINK" in2="DILATED" operator="in" result="OUTLINE"></feComposite>
            <feMerge>
                <feMergeNode in="OUTLINE"></feMergeNode>
                <feMergeNode in="SourceGraphic"></feMergeNode>
            </feMerge>
        </filter>
        <filter id="hover" height="200%">
            <feMorphology in="SourceAlpha" result="DILATED" operator="dilate" radius="2"></feMorphology>
            <feFlood flood-color="#ff0000" flood-opacity="0.5" result="PINK"></feFlood>
            <feComposite in="PINK" in2="DILATED" operator="in" result="OUTLINE"></feComposite>
            <feMerge>
                <feMergeNode in="OUTLINE"></feMergeNode>
                <feMergeNode in="SourceGraphic"></feMergeNode>
            </feMerge>
            <feColorMatrix type="matrix" values="0   0   0   0   0                0   1   0   0   0                0   0   0   0   0                0   0   0   1   0 "></feColorMatrix>
        </filter>
    </defs>
</svg>